#!OML:ASF F:\VICON\USERDATA\INSTALL\rory3\rory3.ASF
:FULLY-SPECIFIED
:DEGREES
33
root 1.07525 17.5903 -25.8588 -1.95609 -1.17284 4.68459
lowerback 5.59535 -0.587713 -4.19521
upperback 1.04896 -1.00432 1.16051
thorax -1.96214 -0.475164 3.6272
lowerneck -12.389 -1.83566 -9.43656
upperneck 20.7416 -1.20031 3.10335
head 8.60106 -0.988049 2.49022
rclavicle -6.85807e-015 7.95139e-016
rhumerus -31.8515 -12.7423 -77.7849
rradius 32.2124
rwrist 5.50789
rhand -13.4967 14.4452
rfingers 7.12502
rthumb 12.6143 -15.154
lclavicle -6.85807e-015 7.95139e-016
lhumerus -34.5002 8.92963 83.2006
lradius 23.5266
lwrist -18.2309
lhand -10.6597 28.3135
lfingers 7.12502
lthumb 15.3483 57.7239
rfemur -25.8951 -2.49923 15.9344
rtibia 74.5035
rfoot -6.83877 -7.68604
rtoes 1.14077
lfemur -5.45851 -2.1398 -27.8978
ltibia 21.2531
lfoot -11.2873 -0.489735
ltoes -4.85238
34
root 1.077 17.5695 -25.6818 -2.04202 -0.599402 5.00174
lowerback 5.92758 -0.63727 -4.39139
upperback 1.14964 -1.09922 0.974748
thorax -2.03479 -0.52169 3.55695
lowerneck -12.8227 -2.0275 -9.12574
upperneck 20.7456 -1.47605 3.04455
head 8.69665 -1.09683 2.38679
rclavicle 3.32964e-015 1.51076e-014
rhumerus -32.1908 -13.3801 -77.7275
rradius 31.7541
rwrist 5.77018
rhand -13.5141 17.1669
rfingers 7.12502
rthumb 12.5976 -12.4333
lclavicle 3.32964e-015 1.51076e-014
lhumerus -33.5329 7.86558 83.4357
lradius 23.8291
lwrist -17.5167
lhand -11.4577 27.7793
lfingers 7.12502
lthumb 14.5796 57.2469
rfemur -26.923 -3.25696 15.6608
rtibia 73.8493
rfoot -7.68583 -7.83222
rtoes 1.55609
lfemur -4.96832 -2.42369 -28.3426
ltibia 21.775
lfoot -12.0597 -0.510175
ltoes -3.42623
35
root 1.0736 17.5378 -25.5149 -1.96212 -0.4288 5.32592
lowerback 6.1486 -0.678093 -4.74755
upperback 1.1817 -1.18735 0.919114
thorax -2.11049 -0.562287 3.71072
lowerneck -13.4625 -1.99754 -9.05491
upperneck 20.95 -1.385 3.04498
head 8.87729 -1.04893 2.38642
rclavicle -6.4605e-016 -7.95139e-015
rhumerus -32.4771 -13.1509 -77.8545
rradius 31.6133
rwrist 5.6844
rhand -13.8987 18.9031
rfingers 7.12502
rthumb 12.2268 -10.7195
lclavicle -6.4605e-016 -7.95139e-015
lhumerus -32.8947 7.10433 83.6741
lradius 24.4655
lwrist -16.6357
lhand -12.0966 27.6608
lfingers 7.12502
lthumb 13.9639 57.1718
rfemur -28.2703 -3.60797 15.4502
rtibia 73.0944
rfoot -8.73379 -7.97619
rtoes -0.303202
lfemur -4.56455 -2.51465 -28.7655
ltibia 22.0442
lfoot -12.6668 -0.289773
ltoes -2.6242
36
root 1.07198 17.5143 -25.3402 -1.7791 -0.380943 5.30249
lowerback 6.11251 -0.875891 -4.96652
upperback 1.00354 -1.46015 1.18224
thorax -2.23507 -0.689361 4.13004
lowerneck -12.991 -1.79026 -9.43947
upperneck 20.6633 -1.07398 3.11113
head 8.67607 -0.92254 2.50587
rclavicle -7.90169e-015 -3.97569e-015
rhumerus -33.0906 -11.8667 -78.0531
rradius 31.9385
rwrist 5.10238
rhand -14.306 17.7595
rfingers 7.12502
rthumb 11.834 -11.8861
lclavicle -7.90169e-015 -3.97569e-015
lhumerus -32.723 7.01291 83.8944
lradius 24.9998
lwrist -16.0616
lhand -12.2281 28.0508
lfingers 7.12502
lthumb 13.8372 57.5706
rfemur -29.6313 -3.77089 15.664
rtibia 72.0645
rfoot -9.4394 -8.18314
rtoes -1.96468
lfemur -4.12625 -2.59393 -28.787
ltibia 22.1656
lfoot -13.2469 -0.0798887
ltoes -3.1209
37
root 1.07486 17.5014 -25.1589 -1.75337 -0.108907 5.31827
lowerback 6.20549 -1.04837 -5.05858
upperback 0.956121 -1.69857 1.2985
thorax -2.30417 -0.804307 4.32424
lowerneck -12.549 -1.71435 -9.6108
upperneck 20.2351 -0.995108 3.18521
head 8.44581 -0.883311 2.56327
rclavicle 2.4202e-014 1.98785e-014
rhumerus -33.4333 -11.2381 -78.1823
rradius 31.7828
rwrist 4.69727
rhand -14.2051 17.3322
rfingers 7.12502
rthumb 11.9313 -12.3078
lclavicle 2.4202e-014 1.98785e-014
lhumerus -32.2703 6.79673 83.9793
lradius 25.4103
lwrist -15.6747
lhand -12.1778 27.7404
lfingers 7.12502
lthumb 13.8857 57.2569
rfemur -30.6088 -4.17073 15.778
rtibia 70.8055
rfoot -9.72352 -8.33866
rtoes -1.75106
lfemur -3.42488 -2.85165 -28.8695
ltibia 22.2234
lfoot -13.7356 0.0453586
ltoes -4.41575
